<?xml version="1.0" standalone="no"?>
<!DOCTYPE svg PUBLIC "-//W3C//DTD SVG 20010904//EN"
 "http://www.w3.org/TR/2001/REC-SVG-20010904/DTD/svg10.dtd">
<svg version="1.0" xmlns="http://www.w3.org/2000/svg"
 width="350" height="100" viewBox="500 20 480 550"
 preserveAspectRatio="xMidYMid meet">
<metadata>
Created by ...
</metadata>
<g transform="translate(0.000000,521.000000) scale(0.0500000,-0.0500000)"
fill="#000000" stroke="none">
<path d="M5145 6474 c-600 -47 -1062 -229 -1407 -553 -352 -331 -547 -793
-548 -1294 0 -267 85 -528 255 -782 269 -402 689 -639 1234 -696 179 -18 894
2 919 26 5 4 222 859 219 862 -2 1 -56 -9 -122 -22 -172 -35 -339 -48 -537
-42 -149 4 -185 8 -263 31 -144 43 -237 98 -336 196 -141 139 -189 264 -189
495 0 444 258 801 682 944 160 54 244 66 468 66 231 0 343 -17 533 -79 56 -19
102 -33 103 -32 10 17 201 773 196 778 -10 9 -366 65 -532 83 -139 15 -570 27
-675 19z"/>
<path d="M16980 6439 c-614 -27 -1067 -177 -1323 -436 -122 -123 -198 -254
-243 -416 -35 -124 -44 -347 -20 -452 27 -113 79 -207 170 -302 107 -114 227
-191 527 -341 330 -165 387 -209 397 -312 14 -148 -99 -267 -305 -321 -184
-49 -697 -28 -1022 42 -72 16 -96 18 -101 9 -12 -20 -185 -718 -179 -724 8 -8
179 -34 309 -46 176 -17 829 -24 1000 -11 666 53 1134 250 1379 580 63 85 135
233 162 336 18 66 22 109 23 250 1 193 -7 230 -77 349 -88 153 -241 268 -557
424 -252 124 -338 173 -400 229 -62 56 -90 108 -90 167 0 58 14 93 53 134 78
82 195 112 452 119 210 6 370 -9 581 -52 64 -14 119 -23 122 -21 11 12 182
720 175 726 -9 8 -314 45 -483 59 -187 16 -364 19 -550 10z"/>
<path d="M26325 6421 c-70 -33 -136 -100 -167 -169 -33 -72 -31 -198 4 -273
14 -32 45 -76 68 -99 66 -66 138 -95 240 -95 73 0 93 4 142 28 69 34 129 92
160 155 18 36 24 68 26 139 3 81 1 99 -21 146 -34 75 -88 131 -159 167 -54 26
-71 30 -147 30 -74 0 -95 -4 -146 -29z m257 -45 c92 -45 158 -153 158 -260 0
-206 -205 -340 -385 -252 -58 29 -93 64 -128 130 -31 58 -31 193 0 251 28 53
88 109 143 135 55 25 155 24 212 -4z"/>
<path d="M26378 6303 l-28 -4 0 -190 0 -189 30 0 30 0 0 85 0 86 38 -7 c55
-10 70 -20 77 -56 21 -104 23 -108 61 -108 32 0 35 2 28 23 -4 12 -13 47 -20
77 -7 32 -21 62 -34 72 l-21 17 21 11 c60 32 58 135 -3 166 -32 17 -129 26
-179 17z"/>
<path d="M6865 6358 c-2 -7 -180 -715 -395 -1573 -215 -858 -393 -1568 -396
-1577 -5 -17 27 -18 573 -18 l579 0 155 618 156 617 381 3 c359 2 382 1 382
-15 0 -10 -67 -289 -149 -620 l-148 -603 548 0 548 0 10 38 c39 151 791 3131
791 3136 0 3 -247 6 -550 6 l-550 0 -6 -27 c-4 -16 -71 -275 -148 -578 l-142
-550 -387 -3 c-291 -2 -387 1 -387 9 0 7 65 266 145 576 80 309 145 565 145
568 0 3 -259 5 -575 5 -452 0 -577 -3 -580 -12z"/>
<path d="M10224 5445 c-128 -509 -227 -922 -220 -917 45 35 2264 1818 2276
1828 12 12 -132 14 -905 14 l-920 0 -231 -925z"/>
<path d="M14533 6142 c-337 -125 -617 -232 -622 -237 -8 -9 -681 -2679 -681
-2704 0 -8 149 -10 567 -9 l568 3 392 1565 c216 861 395 1575 398 1588 3 12 2
22 -2 22 -5 -1 -283 -103 -620 -228z"/>
<path d="M18356 6013 c-49 -197 -91 -364 -94 -370 -3 -10 79 -13 392 -13 308
0 396 -3 396 -12 0 -7 -139 -554 -310 -1215 -170 -661 -310 -1205 -310 -1208
0 -3 255 -5 568 -5 l567 0 306 1218 306 1217 443 5 444 5 86 340 c48 187 90
352 94 368 l6 27 -1402 0 -1403 0 -89 -357z"/>
<path d="M21715 6358 c-2 -7 -182 -723 -398 -1590 l-395 -1578 569 0 568 0 10
38 c5 20 185 736 400 1590 l389 1552 -569 0 c-447 0 -571 -3 -574 -12z"/>
<path d="M23405 6348 c-3 -13 -183 -728 -399 -1590 l-393 -1568 1273 0 1273 0
10 38 c6 20 46 183 91 362 44 179 83 333 86 343 5 16 -33 17 -701 17 -668 0
-706 1 -701 18 3 9 26 100 51 202 25 102 53 209 61 238 l15 52 593 0 593 0 88
348 c48 191 90 353 93 360 3 9 -119 12 -593 12 -563 0 -596 1 -591 18 3 9 28
110 57 224 l51 208 641 2 640 3 87 340 c48 187 90 352 94 368 l6 27 -1210 0
-1210 0 -5 -22z"/>
<path d="M11667 5071 c-928 -351 -1690 -641 -1693 -644 -4 -4 -311 -1213 -314
-1235 0 -1 233 -1 517 0 l517 3 167 615 166 615 133 0 132 0 49 -235 c64 -310
186 -915 194 -962 l6 -38 579 0 c459 0 578 3 575 13 -11 30 -220 746 -256 876
-46 165 -120 464 -116 466 1 1 45 16 97 34 132 46 318 137 430 211 194 129
360 325 435 514 44 114 101 407 78 406 -4 -1 -768 -288 -1696 -639z"/>
</g>
</svg>
