<?xml version="1.0" encoding="UTF-8"?>
<!DOCTYPE svg PUBLIC "-//W3C//DTD SVG 1.1//EN" "http://www.w3.org/Graphics/SVG/1.1/DTD/svg11.dtd">
<svg xmlns="http://www.w3.org/2000/svg" version="1.1" width="535px" height="268px" style="shape-rendering:geometricPrecision; text-rendering:geometricPrecision; image-rendering:optimizeQuality; fill-rule:evenodd; clip-rule:evenodd" xmlns:xlink="http://www.w3.org/1999/xlink">
<g><path style="opacity:1" fill="#000000" d="M -0.5,-0.5 C 177.833,-0.5 356.167,-0.5 534.5,-0.5C 534.5,88.8333 534.5,178.167 534.5,267.5C 356.167,267.5 177.833,267.5 -0.5,267.5C -0.5,178.167 -0.5,88.8333 -0.5,-0.5 Z"/></g>
<g><path style="opacity:1" fill="#f1f1f1" d="M 408.5,33.5 C 411.808,32.9738 413.974,34.3072 415,37.5C 415.917,46.9091 415.584,56.2424 414,65.5C 410.889,67.272 409.056,66.4387 408.5,63C 409.582,55.5256 409.749,48.0256 409,40.5C 405.879,38.3262 405.712,35.9928 408.5,33.5 Z"/></g>
<g><path style="opacity:1" fill="#f4f4f4" d="M 94.5,57.5 C 99.4943,57.329 101.328,59.6624 100,64.5C 95.3046,76.0575 90.4713,87.5575 85.5,99C 87.5288,114.753 89.0288,130.586 90,146.5C 90.3889,153.513 92.0556,160.179 95,166.5C 99.4322,169.165 104.266,170.165 109.5,169.5C 109.68,174.316 107.347,176.316 102.5,175.5C 97.2343,175.731 92.7343,174.065 89,170.5C 86.0642,164.778 83.7309,158.778 82,152.5C 80.3322,140.49 78.6655,128.49 77,116.5C 70.2403,129.019 63.7403,141.686 57.5,154.5C 54.8227,156.165 52.8227,155.665 51.5,153C 59.6529,135.031 67.6529,117.031 75.5,99C 74.5941,94.0321 72.9275,89.3654 70.5,85C 67.9699,83.5783 65.3033,83.245 62.5,84C 60.5709,86.4383 58.2376,88.2717 55.5,89.5C 51.8529,88.5139 50.6862,86.1806 52,82.5C 58.3304,74.185 66.1637,72.3516 75.5,77C 78.078,79.0737 80.078,81.5737 81.5,84.5C 84.8139,79.2166 86.9806,73.55 88,67.5C 89.9282,63.9677 92.0948,60.6344 94.5,57.5 Z"/></g>
<g><path style="opacity:1" fill="#f6f6f6" d="M 244.5,81.5 C 244.169,89.5277 244.502,97.5277 245.5,105.5C 246.107,105.376 246.44,105.043 246.5,104.5C 249.655,102.924 252.988,101.924 256.5,101.5C 256.152,88.7914 256.652,76.1248 258,63.5C 260.966,60.7348 263.633,61.0682 266,64.5C 267.714,97.4836 268.38,130.484 268,163.5C 264.306,168.342 260.306,168.675 256,164.5C 256.193,146.51 256.36,128.51 256.5,110.5C 252.716,111.429 249.049,112.762 245.5,114.5C 244.976,125.275 243.643,135.942 241.5,146.5C 244.642,156.091 241.308,160.258 231.5,159C 229.49,154.391 228.99,149.558 230,144.5C 231.386,136.188 232.552,127.855 233.5,119.5C 230.273,120.744 226.939,121.91 223.5,123C 221.977,125.434 220.977,128.101 220.5,131C 215.671,132.338 213.338,130.504 213.5,125.5C 213.351,121.965 214.684,119.132 217.5,117C 222.829,113.617 228.496,111.117 234.5,109.5C 234.519,100.324 234.852,91.1568 235.5,82C 235.228,76.5792 234.395,71.4125 233,66.5C 236.469,63.0837 240.136,62.7504 244,65.5C 244.499,70.8229 244.666,76.1563 244.5,81.5 Z"/></g>
<g><path style="opacity:1" fill="#f2f2f2" d="M 438.5,63.5 C 442.605,63.4962 444.105,65.4962 443,69.5C 438.939,72.1423 434.439,73.4756 429.5,73.5C 429.003,78.4928 426.836,79.4928 423,76.5C 422.333,74.5 422.333,72.5 423,70.5C 428.019,67.668 433.185,65.3347 438.5,63.5 Z"/></g>
<g><path style="opacity:1" fill="#ececec" d="M 114.5,91.5 C 121.349,93.2229 122.182,96.5562 117,101.5C 112.811,105.881 110.311,105.048 109.5,99C 109.782,95.5559 111.448,93.0559 114.5,91.5 Z"/></g>
<g><path style="opacity:1" fill="#f4f4f4" d="M 338.5,97.5 C 352.954,96.1157 358.788,102.449 356,116.5C 355,118.833 354,121.167 353,123.5C 349.796,126.369 346.963,129.535 344.5,133C 342.888,133.72 341.388,133.554 340,132.5C 340.2,139.104 342.033,145.27 345.5,151C 347.167,151.667 348.833,151.667 350.5,151C 352.054,149.108 353.888,147.608 356,146.5C 358.319,147.409 358.986,149.075 358,151.5C 353.604,158.697 347.771,160.197 340.5,156C 338.518,152.386 336.351,148.886 334,145.5C 328.509,153.756 321.509,155.422 313,150.5C 311.139,148.112 309.806,145.446 309,142.5C 306.55,147.284 303.05,151.117 298.5,154C 295.217,154.743 292.217,154.076 289.5,152C 287.218,148.488 285.718,144.655 285,140.5C 284.162,130.122 284.495,119.788 286,109.5C 288.184,102.14 292.184,100.807 298,105.5C 299.09,108.579 298.257,110.912 295.5,112.5C 294.335,121.482 294.168,130.482 295,139.5C 295.308,140.308 295.808,140.975 296.5,141.5C 303.526,131.588 307.693,120.588 309,108.5C 310.845,104.205 313.512,103.538 317,106.5C 317.333,115.167 317.667,123.833 318,132.5C 318.375,144.283 321.875,145.45 328.5,136C 329.448,135.517 330.448,135.351 331.5,135.5C 330.501,127.189 330.335,118.856 331,110.5C 331.969,105.222 334.469,100.888 338.5,97.5 Z"/></g>
<g><path style="opacity:1" fill="#f2f2f2" d="M 139.5,99.5 C 145.392,98.0733 149.559,100.073 152,105.5C 155.615,114.626 158.615,123.959 161,133.5C 162.123,136.249 163.623,138.749 165.5,141C 167.635,141.635 169.635,141.301 171.5,140C 173.066,137.07 173.9,133.903 174,130.5C 175.333,129.167 176.667,129.167 178,130.5C 179.358,137.091 177.525,142.591 172.5,147C 167.443,149.351 162.943,148.518 159,144.5C 154.424,134.884 150.757,124.884 148,114.5C 144.895,103.922 142.228,103.922 140,114.5C 139.667,123.5 139.333,132.5 139,141.5C 136.034,144.265 133.367,143.932 131,140.5C 129.738,127.741 131.405,115.408 136,103.5C 137.376,102.295 138.542,100.962 139.5,99.5 Z"/></g>
<g><path style="opacity:1" fill="#808080" d="M 244.5,81.5 C 245.167,89.1667 245.833,96.8333 246.5,104.5C 246.44,105.043 246.107,105.376 245.5,105.5C 244.502,97.5277 244.169,89.5277 244.5,81.5 Z"/></g>
<g><path style="opacity:1" fill="#f7f7f7" d="M 392.5,101.5 C 394.792,101.244 396.959,101.577 399,102.5C 401.166,135.516 400.833,168.516 398,201.5C 397.311,211.684 395.645,221.684 393,231.5C 391.519,234.956 389.852,238.289 388,241.5C 381.958,248.153 375.958,248.153 370,241.5C 362.053,226.432 358.72,210.432 360,193.5C 361.74,188.743 364.907,185.91 369.5,185C 372.087,186.525 372.92,188.692 372,191.5C 368.69,195.215 367.69,199.548 369,204.5C 370.948,214.679 374.281,224.345 379,233.5C 383.19,221.888 385.857,209.888 387,197.5C 388.666,178.184 389.666,158.851 390,139.5C 387.562,144.875 384.729,150.042 381.5,155C 377.481,157.16 373.647,156.994 370,154.5C 368.139,152.112 366.806,149.446 366,146.5C 364.957,134.509 364.124,122.509 363.5,110.5C 364.486,106.853 366.819,105.686 370.5,107C 371.701,107.903 372.535,109.069 373,110.5C 373.333,117.833 373.667,125.167 374,132.5C 374.297,135.914 374.964,139.247 376,142.5C 378.838,138.828 381.171,134.828 383,130.5C 386.294,120.786 389.461,111.119 392.5,101.5 Z"/></g>
<g><path style="opacity:1" fill="#0e0e0e" d="M 341.5,105.5 C 343.792,105.244 345.959,105.577 348,106.5C 349.058,114.463 346.058,120.463 339,124.5C 337.759,117.806 338.592,111.472 341.5,105.5 Z"/></g>
<g><path style="opacity:1" fill="#e7e7e7" d="M 437.5,126.5 C 440.962,127.482 444.629,127.815 448.5,127.5C 448.688,125.897 448.188,124.563 447,123.5C 446.29,124.973 445.124,125.64 443.5,125.5C 443.396,122.91 444.063,120.577 445.5,118.5C 444.191,114.6 443.524,110.6 443.5,106.5C 447.311,107.468 450.811,109.135 454,111.5C 456.572,109.794 459.072,107.961 461.5,106C 462.793,105.51 464.127,105.343 465.5,105.5C 465.218,110.522 465.051,115.522 465,120.5C 468.222,123.388 471.722,125.888 475.5,128C 477.602,129.733 477.935,131.733 476.5,134C 471.472,134.588 466.472,134.422 461.5,133.5C 460.624,137.462 459.958,141.462 459.5,145.5C 458.178,145.67 457.011,145.337 456,144.5C 454.578,139.825 452.745,135.325 450.5,131C 445.5,130.667 440.5,130.333 435.5,130C 434.027,129.29 433.36,128.124 433.5,126.5C 434.833,126.5 436.167,126.5 437.5,126.5 Z"/></g>
<g><path style="opacity:1" fill="#f1f1f1" d="M 117.5,107.5 C 120.044,107.104 122.211,107.771 124,109.5C 124.206,121.526 124.706,133.526 125.5,145.5C 124.734,150.15 122.068,151.65 117.5,150C 116.299,149.097 115.465,147.931 115,146.5C 114.407,134.147 114.74,121.813 116,109.5C 116.717,108.956 117.217,108.289 117.5,107.5 Z"/></g>
<g><path style="opacity:1" fill="#232323" d="M 460.5,109.5 C 461.649,109.791 462.316,110.624 462.5,112C 462.204,113.888 461.704,115.722 461,117.5C 459.649,115.981 458.149,114.648 456.5,113.5C 458.188,112.479 459.521,111.145 460.5,109.5 Z"/></g>
<g><path style="opacity:1" fill="#1c1c1c" d="M 446.5,110.5 C 448.138,111.657 449.804,112.824 451.5,114C 450.646,115.022 449.646,115.855 448.5,116.5C 447.523,114.589 446.857,112.589 446.5,110.5 Z"/></g>
<g><path style="opacity:1" fill="#0e0e0e" d="M 452.5,116.5 C 455.806,117.291 458.473,119.124 460.5,122C 459.713,124.099 459.38,126.266 459.5,128.5C 457.076,128.808 454.743,128.474 452.5,127.5C 451.363,125.393 450.363,123.227 449.5,121C 450.315,119.357 451.315,117.857 452.5,116.5 Z"/></g>
<g><path style="opacity:1" fill="#1e1e1e" d="M 463.5,124.5 C 466.283,126.067 468.949,127.9 471.5,130C 468.854,130.497 466.187,130.664 463.5,130.5C 463.5,128.5 463.5,126.5 463.5,124.5 Z"/></g>
<g><path style="opacity:1" fill="#434343" d="M 437.5,126.5 C 439.735,126.795 441.735,126.461 443.5,125.5C 445.124,125.64 446.29,124.973 447,123.5C 448.188,124.563 448.688,125.897 448.5,127.5C 444.629,127.815 440.962,127.482 437.5,126.5 Z"/></g>
<g><path style="opacity:1" fill="#252525" d="M 455.5,131.5 C 456.5,131.5 457.5,131.5 458.5,131.5C 457.5,138.167 456.5,138.167 455.5,131.5 Z"/></g>
<g><path style="opacity:1" fill="#e6e6e6" d="M 443.5,163.5 C 444.5,163.5 445.5,163.5 446.5,163.5C 446.334,169.509 446.501,175.509 447,181.5C 450.78,184.961 454.614,188.295 458.5,191.5C 458.023,192.478 457.357,193.311 456.5,194C 451.796,194.648 447.129,194.481 442.5,193.5C 441.207,197.384 440.541,201.384 440.5,205.5C 439.167,205.5 437.833,205.5 436.5,205.5C 436.479,200.62 435.145,196.12 432.5,192C 428.21,191.077 423.877,190.577 419.5,190.5C 419.5,189.5 419.5,188.5 419.5,187.5C 422.865,188.036 424.865,186.703 425.5,183.5C 422.817,178.118 421.15,172.452 420.5,166.5C 426.209,166.459 431.376,168.125 436,171.5C 438.705,168.964 441.205,166.297 443.5,163.5 Z"/></g>
<g><path style="opacity:1" fill="#131313" d="M 423.5,169.5 C 427.182,169.591 430.349,170.924 433,173.5C 432.427,175.804 431.26,177.971 429.5,180C 428.551,180.617 427.718,180.451 427,179.5C 424.965,176.439 423.799,173.105 423.5,169.5 Z"/></g>
<g><path style="opacity:1" fill="#141414" d="M 441.5,168.5 C 442.765,169.514 443.431,171.014 443.5,173C 443.333,174.5 443.167,176 443,177.5C 441.5,176 440,174.5 438.5,173C 439.883,171.729 440.883,170.229 441.5,168.5 Z"/></g>
<g><path style="opacity:1" fill="#0d0d0d" d="M 435.5,176.5 C 441.342,178.631 443.009,182.631 440.5,188.5C 435.607,189.686 432.273,188.019 430.5,183.5C 431.804,180.87 433.47,178.537 435.5,176.5 Z"/></g>
<g><path style="opacity:1" fill="#323232" d="M 444.5,185.5 C 446.932,186.75 449.266,188.25 451.5,190C 449.19,190.497 446.857,190.663 444.5,190.5C 444.5,188.833 444.5,187.167 444.5,185.5 Z"/></g>
</svg>
